<svg xmlns="http://www.w3.org/2000/svg" width="1414" height="629" viewBox="0 0 1414 629" font-family="Montserrat, 'DejaVu Sans', Arial, sans-serif"><rect width="1414" height="629" fill="#fbf5ec"/><text x="40" y="52" font-size="26" font-weight="700" fill="#2b1620">Attribute accuracy by model (%)</text><text x="40" y="82" font-size="16" fill="#5c4750">Rows sorted by overall score. Measured on the items each model found; misses show up in recall.</text><text x="293" y="205" text-anchor="start" font-size="14" fill="#5c4750" transform="rotate(-35 293 205)">category</text><text x="371" y="205" text-anchor="start" font-size="14" fill="#5c4750" transform="rotate(-35 371 205)">department</text><text x="449" y="205" text-anchor="start" font-size="14" fill="#5c4750" transform="rotate(-35 449 205)">pattern</text><text x="527" y="205" text-anchor="start" font-size="14" fill="#5c4750" transform="rotate(-35 527 205)">sleeve</text><text x="605" y="205" text-anchor="start" font-size="14" fill="#5c4750" transform="rotate(-35 605 205)">neckline</text><text x="683" y="205" text-anchor="start" font-size="14" fill="#5c4750" transform="rotate(-35 683 205)">occasion</text><text x="761" y="205" text-anchor="start" font-size="14" fill="#5c4750" transform="rotate(-35 761 205)">ethnic</text><text x="839" y="205" text-anchor="start" font-size="14" fill="#5c4750" transform="rotate(-35 839 205)">search</text><text x="917" y="205" text-anchor="start" font-size="14" fill="#5c4750" transform="rotate(-35 917 205)">colour</text><text x="995" y="205" text-anchor="start" font-size="14" fill="#5c4750" transform="rotate(-35 995 205)">fabric</text><text x="1073" y="205" text-anchor="start" font-size="14" fill="#5c4750" transform="rotate(-35 1073 205)">fit</text><text x="1151" y="205" text-anchor="start" font-size="14" fill="#5c4750" transform="rotate(-35 1151 205)">length</text><text x="1229" y="205" text-anchor="start" font-size="14" fill="#5c4750" transform="rotate(-35 1229 205)">brand visible</text><text x="248" y="237" text-anchor="end" font-size="15" fill="#2b1620">Gemini 3.6 Flash</text><rect x="261" y="216" width="76" height="32" rx="4" fill="hsl(128,45%,50.616883116883116%)"/><text x="299" y="237" text-anchor="middle" font-size="13" fill="#2b1620">98</text><rect x="339" y="216" width="76" height="32" rx="4" fill="hsl(127,45%,50.74025974025974%)"/><text x="377" y="237" text-anchor="middle" font-size="13" fill="#2b1620">98</text><rect x="417" y="216" width="76" height="32" rx="4" fill="hsl(126,45%,51.212765957446805%)"/><text x="455" y="237" text-anchor="middle" font-size="13" fill="#2b1620">97</text><rect x="495" y="216" width="76" height="32" rx="4" fill="hsl(126,45%,51.11764705882353%)"/><text x="533" y="237" text-anchor="middle" font-size="13" fill="#2b1620">97</text><rect x="573" y="216" width="76" height="32" rx="4" fill="hsl(127,45%,50.76767676767677%)"/><text x="611" y="237" text-anchor="middle" font-size="13" fill="#2b1620">98</text><rect x="651" y="216" width="76" height="32" rx="4" fill="hsl(118,45%,53.605839416058394%)"/><text x="689" y="237" text-anchor="middle" font-size="13" fill="#2b1620">91</text><rect x="729" y="216" width="76" height="32" rx="4" fill="hsl(128,45%,50.60317460317461%)"/><text x="767" y="237" text-anchor="middle" font-size="13" fill="#2b1620">98</text><rect x="807" y="216" width="76" height="32" rx="4" fill="hsl(120,45%,52.910924369747896%)"/><text x="845" y="237" text-anchor="middle" font-size="13" fill="#2b1620">92</text><rect x="885" y="216" width="76" height="32" rx="4" fill="hsl(122,45%,52.30714285714286%)"/><text x="923" y="237" text-anchor="middle" font-size="13" fill="#2b1620">94</text><rect x="963" y="216" width="76" height="32" rx="4" fill="hsl(124,45%,51.79245283018868%)"/><text x="1001" y="237" text-anchor="middle" font-size="13" fill="#2b1620">95</text><rect x="1041" y="216" width="76" height="32" rx="4" fill="hsl(99,45%,59.07096774193549%)"/><text x="1079" y="237" text-anchor="middle" font-size="13" fill="#2b1620">76</text><rect x="1119" y="216" width="76" height="32" rx="4" fill="hsl(121,45%,52.6125%)"/><text x="1157" y="237" text-anchor="middle" font-size="13" fill="#2b1620">93</text><rect x="1197" y="216" width="76" height="32" rx="4" fill="hsl(43,45%,75.33333333333333%)"/><text x="1235" y="237" text-anchor="middle" font-size="13" fill="#2b1620">33</text><text x="248" y="271" text-anchor="end" font-size="15" fill="#2b1620">Gemini 3 Flash</text><rect x="261" y="250" width="76" height="32" rx="4" fill="hsl(128,45%,50.6551724137931%)"/><text x="299" y="271" text-anchor="middle" font-size="13" fill="#2b1620">98</text><rect x="339" y="250" width="76" height="32" rx="4" fill="hsl(128,45%,50.716981132075475%)"/><text x="377" y="271" text-anchor="middle" font-size="13" fill="#2b1620">98</text><rect x="417" y="250" width="76" height="32" rx="4" fill="hsl(126,45%,51.3013698630137%)"/><text x="455" y="271" text-anchor="middle" font-size="13" fill="#2b1620">97</text><rect x="495" y="250" width="76" height="32" rx="4" fill="hsl(129,45%,50.36538461538461%)"/><text x="533" y="271" text-anchor="middle" font-size="13" fill="#2b1620">99</text><rect x="573" y="250" width="76" height="32" rx="4" fill="hsl(118,45%,53.42%)"/><text x="611" y="271" text-anchor="middle" font-size="13" fill="#2b1620">91</text><rect x="651" y="250" width="76" height="32" rx="4" fill="hsl(114,45%,54.816901408450704%)"/><text x="689" y="271" text-anchor="middle" font-size="13" fill="#2b1620">87</text><rect x="729" y="250" width="76" height="32" rx="4" fill="hsl(129,45%,50.233128834355824%)"/><text x="767" y="271" text-anchor="middle" font-size="13" fill="#2b1620">99</text><rect x="807" y="250" width="76" height="32" rx="4" fill="hsl(119,45%,53.2064870259481%)"/><text x="845" y="271" text-anchor="middle" font-size="13" fill="#2b1620">92</text><rect x="885" y="250" width="76" height="32" rx="4" fill="hsl(127,45%,50.84589041095891%)"/><text x="923" y="271" text-anchor="middle" font-size="13" fill="#2b1620">98</text><rect x="963" y="250" width="76" height="32" rx="4" fill="hsl(117,45%,53.69444444444444%)"/><text x="1001" y="271" text-anchor="middle" font-size="13" fill="#2b1620">90</text><rect x="1041" y="250" width="76" height="32" rx="4" fill="hsl(104,45%,57.745222929936304%)"/><text x="1079" y="271" text-anchor="middle" font-size="13" fill="#2b1620">80</text><rect x="1119" y="250" width="76" height="32" rx="4" fill="hsl(115,45%,54.40243902439024%)"/><text x="1157" y="271" text-anchor="middle" font-size="13" fill="#2b1620">88</text><rect x="1197" y="250" width="76" height="32" rx="4" fill="hsl(0,45%,88%)"/><text x="1235" y="271" text-anchor="middle" font-size="13" fill="#2b1620">0</text><text x="248" y="305" text-anchor="end" font-size="15" fill="#2b1620">Gemini 3.5 Flash</text><rect x="261" y="284" width="76" height="32" rx="4" fill="hsl(127,45%,50.86363636363636%)"/><text x="299" y="305" text-anchor="middle" font-size="13" fill="#2b1620">98</text><rect x="339" y="284" width="76" height="32" rx="4" fill="hsl(125,45%,51.32404181184669%)"/><text x="377" y="305" text-anchor="middle" font-size="13" fill="#2b1620">97</text><rect x="417" y="284" width="76" height="32" rx="4" fill="hsl(127,45%,51.00377358490566%)"/><text x="455" y="305" text-anchor="middle" font-size="13" fill="#2b1620">97</text><rect x="495" y="284" width="76" height="32" rx="4" fill="hsl(130,45%,50%)"/><text x="533" y="305" text-anchor="middle" font-size="13" fill="#2b1620">100</text><rect x="573" y="284" width="76" height="32" rx="4" fill="hsl(123,45%,52%)"/><text x="611" y="305" text-anchor="middle" font-size="13" fill="#2b1620">95</text><rect x="651" y="284" width="76" height="32" rx="4" fill="hsl(117,45%,53.905138339920946%)"/><text x="689" y="305" text-anchor="middle" font-size="13" fill="#2b1620">90</text><rect x="729" y="284" width="76" height="32" rx="4" fill="hsl(128,45%,50.51877133105802%)"/><text x="767" y="305" text-anchor="middle" font-size="13" fill="#2b1620">99</text><rect x="807" y="284" width="76" height="32" rx="4" fill="hsl(117,45%,53.75491219743712%)"/><text x="845" y="305" text-anchor="middle" font-size="13" fill="#2b1620">90</text><rect x="885" y="284" width="76" height="32" rx="4" fill="hsl(126,45%,51.23754789272031%)"/><text x="923" y="305" text-anchor="middle" font-size="13" fill="#2b1620">97</text><rect x="963" y="284" width="76" height="32" rx="4" fill="hsl(123,45%,52.14358974358974%)"/><text x="1001" y="305" text-anchor="middle" font-size="13" fill="#2b1620">94</text><rect x="1041" y="284" width="76" height="32" rx="4" fill="hsl(110,45%,55.712418300653596%)"/><text x="1079" y="305" text-anchor="middle" font-size="13" fill="#2b1620">85</text><rect x="1119" y="284" width="76" height="32" rx="4" fill="hsl(123,45%,51.93630573248407%)"/><text x="1157" y="305" text-anchor="middle" font-size="13" fill="#2b1620">95</text><rect x="1197" y="284" width="76" height="32" rx="4" fill="hsl(0,45%,88%)"/><text x="1235" y="305" text-anchor="middle" font-size="13" fill="#2b1620">0</text><text x="248" y="339" text-anchor="end" font-size="15" fill="#2b1620">Gemini 3.1 Flash-Lite</text><rect x="261" y="318" width="76" height="32" rx="4" fill="hsl(128,45%,50.58762886597938%)"/><text x="299" y="339" text-anchor="middle" font-size="13" fill="#2b1620">98</text><rect x="339" y="318" width="76" height="32" rx="4" fill="hsl(126,45%,51.04827586206897%)"/><text x="377" y="339" text-anchor="middle" font-size="13" fill="#2b1620">97</text><rect x="417" y="318" width="76" height="32" rx="4" fill="hsl(126,45%,51.142857142857146%)"/><text x="455" y="339" text-anchor="middle" font-size="13" fill="#2b1620">97</text><rect x="495" y="318" width="76" height="32" rx="4" fill="hsl(130,45%,50%)"/><text x="533" y="339" text-anchor="middle" font-size="13" fill="#2b1620">100</text><rect x="573" y="318" width="76" height="32" rx="4" fill="hsl(122,45%,52.45161290322581%)"/><text x="611" y="339" text-anchor="middle" font-size="13" fill="#2b1620">94</text><rect x="651" y="318" width="76" height="32" rx="4" fill="hsl(120,45%,53.045801526717554%)"/><text x="689" y="339" text-anchor="middle" font-size="13" fill="#2b1620">92</text><rect x="729" y="318" width="76" height="32" rx="4" fill="hsl(128,45%,50.508361204013376%)"/><text x="767" y="339" text-anchor="middle" font-size="13" fill="#2b1620">99</text><rect x="807" y="318" width="76" height="32" rx="4" fill="hsl(115,45%,54.2781045751634%)"/><text x="845" y="339" text-anchor="middle" font-size="13" fill="#2b1620">89</text><rect x="885" y="318" width="76" height="32" rx="4" fill="hsl(126,45%,51.29056603773585%)"/><text x="923" y="339" text-anchor="middle" font-size="13" fill="#2b1620">97</text><rect x="963" y="318" width="76" height="32" rx="4" fill="hsl(104,45%,57.715736040609144%)"/><text x="1001" y="339" text-anchor="middle" font-size="13" fill="#2b1620">80</text><rect x="1041" y="318" width="76" height="32" rx="4" fill="hsl(98,45%,59.5%)"/><text x="1079" y="339" text-anchor="middle" font-size="13" fill="#2b1620">75</text><rect x="1119" y="318" width="76" height="32" rx="4" fill="hsl(109,45%,56.12080536912752%)"/><text x="1157" y="339" text-anchor="middle" font-size="13" fill="#2b1620">84</text><rect x="1197" y="318" width="76" height="32" rx="4" fill="hsl(43,45%,75.33333333333333%)"/><text x="1235" y="339" text-anchor="middle" font-size="13" fill="#2b1620">33</text><text x="248" y="373" text-anchor="end" font-size="15" fill="#2b1620">GPT-5.4 mini</text><rect x="261" y="352" width="76" height="32" rx="4" fill="hsl(124,45%,51.72168284789644%)"/><text x="299" y="373" text-anchor="middle" font-size="13" fill="#2b1620">95</text><rect x="339" y="352" width="76" height="32" rx="4" fill="hsl(124,45%,51.732899022801305%)"/><text x="377" y="373" text-anchor="middle" font-size="13" fill="#2b1620">95</text><rect x="417" y="352" width="76" height="32" rx="4" fill="hsl(70,45%,67.64285714285714%)"/><text x="455" y="373" text-anchor="middle" font-size="13" fill="#2b1620">54</text><rect x="495" y="352" width="76" height="32" rx="4" fill="hsl(124,45%,51.881188118811885%)"/><text x="533" y="373" text-anchor="middle" font-size="13" fill="#2b1620">95</text><rect x="573" y="352" width="76" height="32" rx="4" fill="hsl(115,45%,54.26530612244898%)"/><text x="611" y="373" text-anchor="middle" font-size="13" fill="#2b1620">89</text><rect x="651" y="352" width="76" height="32" rx="4" fill="hsl(108,45%,56.4029304029304%)"/><text x="689" y="373" text-anchor="middle" font-size="13" fill="#2b1620">83</text><rect x="729" y="352" width="76" height="32" rx="4" fill="hsl(122,45%,52.40506329113924%)"/><text x="767" y="373" text-anchor="middle" font-size="13" fill="#2b1620">94</text><rect x="807" y="352" width="76" height="32" rx="4" fill="hsl(106,45%,57.127170868347335%)"/><text x="845" y="373" text-anchor="middle" font-size="13" fill="#2b1620">81</text><rect x="885" y="352" width="76" height="32" rx="4" fill="hsl(120,45%,52.90747330960854%)"/><text x="923" y="373" text-anchor="middle" font-size="13" fill="#2b1620">92</text><rect x="963" y="352" width="76" height="32" rx="4" fill="hsl(95,45%,60.347417840375584%)"/><text x="1001" y="373" text-anchor="middle" font-size="13" fill="#2b1620">73</text><rect x="1041" y="352" width="76" height="32" rx="4" fill="hsl(101,45%,58.556291390728475%)"/><text x="1079" y="373" text-anchor="middle" font-size="13" fill="#2b1620">77</text><rect x="1119" y="352" width="76" height="32" rx="4" fill="hsl(114,45%,54.59872611464968%)"/><text x="1157" y="373" text-anchor="middle" font-size="13" fill="#2b1620">88</text><rect x="1197" y="352" width="76" height="32" rx="4" fill="hsl(43,45%,75.33333333333333%)"/><text x="1235" y="373" text-anchor="middle" font-size="13" fill="#2b1620">33</text><text x="248" y="407" text-anchor="end" font-size="15" fill="#2b1620">GPT-5.6 Luna</text><rect x="261" y="386" width="76" height="32" rx="4" fill="hsl(124,45%,51.798107255520506%)"/><text x="299" y="407" text-anchor="middle" font-size="13" fill="#2b1620">95</text><rect x="339" y="386" width="76" height="32" rx="4" fill="hsl(125,45%,51.563291139240505%)"/><text x="377" y="407" text-anchor="middle" font-size="13" fill="#2b1620">96</text><rect x="417" y="386" width="76" height="32" rx="4" fill="hsl(18,45%,82.72222222222223%)"/><text x="455" y="407" text-anchor="middle" font-size="13" fill="#2b1620">14</text><rect x="495" y="386" width="76" height="32" rx="4" fill="hsl(111,45%,55.48076923076923%)"/><text x="533" y="407" text-anchor="middle" font-size="13" fill="#2b1620">86</text><rect x="573" y="386" width="76" height="32" rx="4" fill="hsl(112,45%,55.32%)"/><text x="611" y="407" text-anchor="middle" font-size="13" fill="#2b1620">86</text><rect x="651" y="386" width="76" height="32" rx="4" fill="hsl(112,45%,55.13879003558719%)"/><text x="689" y="407" text-anchor="middle" font-size="13" fill="#2b1620">86</text><rect x="729" y="386" width="76" height="32" rx="4" fill="hsl(125,45%,51.52%)"/><text x="767" y="407" text-anchor="middle" font-size="13" fill="#2b1620">96</text><rect x="807" y="386" width="76" height="32" rx="4" fill="hsl(101,45%,58.5696213425129%)"/><text x="845" y="407" text-anchor="middle" font-size="13" fill="#2b1620">77</text><rect x="885" y="386" width="76" height="32" rx="4" fill="hsl(115,45%,54.52068965517241%)"/><text x="923" y="407" text-anchor="middle" font-size="13" fill="#2b1620">88</text><rect x="963" y="386" width="76" height="32" rx="4" fill="hsl(54,45%,72.23963133640552%)"/><text x="1001" y="407" text-anchor="middle" font-size="13" fill="#2b1620">41</text><rect x="1041" y="386" width="76" height="32" rx="4" fill="hsl(96,45%,59.93464052287582%)"/><text x="1079" y="407" text-anchor="middle" font-size="13" fill="#2b1620">74</text><rect x="1119" y="386" width="76" height="32" rx="4" fill="hsl(113,45%,54.95652173913044%)"/><text x="1157" y="407" text-anchor="middle" font-size="13" fill="#2b1620">87</text><rect x="1197" y="386" width="76" height="32" rx="4" fill="hsl(43,45%,75.33333333333333%)"/><text x="1235" y="407" text-anchor="middle" font-size="13" fill="#2b1620">33</text><text x="248" y="441" text-anchor="end" font-size="15" fill="#2b1620">Claude Haiku 4.5</text><rect x="261" y="420" width="76" height="32" rx="4" fill="hsl(123,45%,51.98986486486487%)"/><text x="299" y="441" text-anchor="middle" font-size="13" fill="#2b1620">95</text><rect x="339" y="420" width="76" height="32" rx="4" fill="hsl(113,45%,54.98989898989899%)"/><text x="377" y="441" text-anchor="middle" font-size="13" fill="#2b1620">87</text><rect x="417" y="420" width="76" height="32" rx="4" fill="hsl(117,45%,53.814126394052046%)"/><text x="455" y="441" text-anchor="middle" font-size="13" fill="#2b1620">90</text><rect x="495" y="420" width="76" height="32" rx="4" fill="hsl(109,45%,56.2680412371134%)"/><text x="533" y="441" text-anchor="middle" font-size="13" fill="#2b1620">84</text><rect x="573" y="420" width="76" height="32" rx="4" fill="hsl(112,45%,55.31182795698925%)"/><text x="611" y="441" text-anchor="middle" font-size="13" fill="#2b1620">86</text><rect x="651" y="420" width="76" height="32" rx="4" fill="hsl(106,45%,56.93536121673004%)"/><text x="689" y="441" text-anchor="middle" font-size="13" fill="#2b1620">82</text><rect x="729" y="420" width="76" height="32" rx="4" fill="hsl(124,45%,51.625%)"/><text x="767" y="441" text-anchor="middle" font-size="13" fill="#2b1620">96</text><rect x="807" y="420" width="76" height="32" rx="4" fill="hsl(95,45%,60.37334252028785%)"/><text x="845" y="441" text-anchor="middle" font-size="13" fill="#2b1620">73</text><rect x="885" y="420" width="76" height="32" rx="4" fill="hsl(105,45%,57.29151291512915%)"/><text x="923" y="441" text-anchor="middle" font-size="13" fill="#2b1620">81</text><rect x="963" y="420" width="76" height="32" rx="4" fill="hsl(93,45%,60.69902912621359%)"/><text x="1001" y="441" text-anchor="middle" font-size="13" fill="#2b1620">72</text><rect x="1041" y="420" width="76" height="32" rx="4" fill="hsl(76,45%,65.81208053691275%)"/><text x="1079" y="441" text-anchor="middle" font-size="13" fill="#2b1620">58</text><rect x="1119" y="420" width="76" height="32" rx="4" fill="hsl(65,45%,69.12582781456953%)"/><text x="1157" y="441" text-anchor="middle" font-size="13" fill="#2b1620">50</text><rect x="1197" y="420" width="76" height="32" rx="4" fill="hsl(43,45%,75.33333333333333%)"/><text x="1235" y="441" text-anchor="middle" font-size="13" fill="#2b1620">33</text><text x="248" y="475" text-anchor="end" font-size="15" fill="#2b1620">GPT-5.4 nano</text><rect x="261" y="454" width="76" height="32" rx="4" fill="hsl(120,45%,52.803278688524586%)"/><text x="299" y="475" text-anchor="middle" font-size="13" fill="#2b1620">93</text><rect x="339" y="454" width="76" height="32" rx="4" fill="hsl(103,45%,57.801324503311264%)"/><text x="377" y="475" text-anchor="middle" font-size="13" fill="#2b1620">79</text><rect x="417" y="454" width="76" height="32" rx="4" fill="hsl(64,45%,69.34296028880867%)"/><text x="455" y="475" text-anchor="middle" font-size="13" fill="#2b1620">49</text><rect x="495" y="454" width="76" height="32" rx="4" fill="hsl(106,45%,57.05154639175258%)"/><text x="533" y="475" text-anchor="middle" font-size="13" fill="#2b1620">81</text><rect x="573" y="454" width="76" height="32" rx="4" fill="hsl(101,45%,58.400000000000006%)"/><text x="611" y="475" text-anchor="middle" font-size="13" fill="#2b1620">78</text><rect x="651" y="454" width="76" height="32" rx="4" fill="hsl(92,45%,60.977777777777774%)"/><text x="689" y="475" text-anchor="middle" font-size="13" fill="#2b1620">71</text><rect x="729" y="454" width="76" height="32" rx="4" fill="hsl(123,45%,52.063897763578275%)"/><text x="767" y="475" text-anchor="middle" font-size="13" fill="#2b1620">95</text><rect x="807" y="454" width="76" height="32" rx="4" fill="hsl(97,45%,59.65107816711591%)"/><text x="845" y="475" text-anchor="middle" font-size="13" fill="#2b1620">75</text><rect x="885" y="454" width="76" height="32" rx="4" fill="hsl(111,45%,55.60431654676259%)"/><text x="923" y="475" text-anchor="middle" font-size="13" fill="#2b1620">85</text><rect x="963" y="454" width="76" height="32" rx="4" fill="hsl(68,45%,68.17391304347827%)"/><text x="1001" y="475" text-anchor="middle" font-size="13" fill="#2b1620">52</text><rect x="1041" y="454" width="76" height="32" rx="4" fill="hsl(78,45%,65.2%)"/><text x="1079" y="475" text-anchor="middle" font-size="13" fill="#2b1620">60</text><rect x="1119" y="454" width="76" height="32" rx="4" fill="hsl(81,45%,64.31168831168831%)"/><text x="1157" y="475" text-anchor="middle" font-size="13" fill="#2b1620">62</text><rect x="1197" y="454" width="76" height="32" rx="4" fill="hsl(43,45%,75.33333333333333%)"/><text x="1235" y="475" text-anchor="middle" font-size="13" fill="#2b1620">33</text><text x="248" y="509" text-anchor="end" font-size="15" fill="#2b1620">GPT-5 nano</text><rect x="261" y="488" width="76" height="32" rx="4" fill="hsl(118,45%,53.40501792114695%)"/><text x="299" y="509" text-anchor="middle" font-size="13" fill="#2b1620">91</text><rect x="339" y="488" width="76" height="32" rx="4" fill="hsl(76,45%,65.91335740072202%)"/><text x="377" y="509" text-anchor="middle" font-size="13" fill="#2b1620">58</text><rect x="417" y="488" width="76" height="32" rx="4" fill="hsl(103,45%,57.92913385826772%)"/><text x="455" y="509" text-anchor="middle" font-size="13" fill="#2b1620">79</text><rect x="495" y="488" width="76" height="32" rx="4" fill="hsl(111,45%,55.6%)"/><text x="533" y="509" text-anchor="middle" font-size="13" fill="#2b1620">85</text><rect x="573" y="488" width="76" height="32" rx="4" fill="hsl(82,45%,64.14893617021276%)"/><text x="611" y="509" text-anchor="middle" font-size="13" fill="#2b1620">63</text><rect x="651" y="488" width="76" height="32" rx="4" fill="hsl(99,45%,59.193548387096776%)"/><text x="689" y="509" text-anchor="middle" font-size="13" fill="#2b1620">76</text><rect x="729" y="488" width="76" height="32" rx="4" fill="hsl(123,45%,52.156028368794324%)"/><text x="767" y="509" text-anchor="middle" font-size="13" fill="#2b1620">94</text><rect x="807" y="488" width="76" height="32" rx="4" fill="hsl(98,45%,59.49656814449918%)"/><text x="845" y="509" text-anchor="middle" font-size="13" fill="#2b1620">75</text><rect x="885" y="488" width="76" height="32" rx="4" fill="hsl(119,45%,53.14173228346456%)"/><text x="923" y="509" text-anchor="middle" font-size="13" fill="#2b1620">92</text><rect x="963" y="488" width="76" height="32" rx="4" fill="hsl(76,45%,65.717277486911%)"/><text x="1001" y="509" text-anchor="middle" font-size="13" fill="#2b1620">59</text><rect x="1041" y="488" width="76" height="32" rx="4" fill="hsl(70,45%,67.41666666666667%)"/><text x="1079" y="509" text-anchor="middle" font-size="13" fill="#2b1620">54</text><rect x="1119" y="488" width="76" height="32" rx="4" fill="hsl(91,45%,61.30379746835443%)"/><text x="1157" y="509" text-anchor="middle" font-size="13" fill="#2b1620">70</text><rect x="1197" y="488" width="76" height="32" rx="4" fill="hsl(0,45%,88%)"/><text x="1235" y="509" text-anchor="middle" font-size="13" fill="#2b1620">0</text><text x="248" y="543" text-anchor="end" font-size="15" fill="#2b1620">Qwen3-VL 235B-A22B</text><rect x="261" y="522" width="76" height="32" rx="4" fill="hsl(115,45%,54.470588235294116%)"/><text x="299" y="543" text-anchor="middle" font-size="13" fill="#2b1620">88</text><rect x="339" y="522" width="76" height="32" rx="4" fill="hsl(126,45%,51.28813559322034%)"/><text x="377" y="543" text-anchor="middle" font-size="13" fill="#2b1620">97</text><rect x="417" y="522" width="76" height="32" rx="4" fill="hsl(118,45%,53.470319634703195%)"/><text x="455" y="543" text-anchor="middle" font-size="13" fill="#2b1620">91</text><rect x="495" y="522" width="76" height="32" rx="4" fill="hsl(113,45%,54.935064935064936%)"/><text x="533" y="543" text-anchor="middle" font-size="13" fill="#2b1620">87</text><rect x="573" y="522" width="76" height="32" rx="4" fill="hsl(59,45%,70.9%)"/><text x="611" y="543" text-anchor="middle" font-size="13" fill="#2b1620">45</text><rect x="651" y="522" width="76" height="32" rx="4" fill="hsl(107,45%,56.74766355140187%)"/><text x="689" y="543" text-anchor="middle" font-size="13" fill="#2b1620">82</text><rect x="729" y="522" width="76" height="32" rx="4" fill="hsl(124,45%,51.72727272727273%)"/><text x="767" y="543" text-anchor="middle" font-size="13" fill="#2b1620">95</text><rect x="807" y="522" width="76" height="32" rx="4" fill="hsl(105,45%,57.29902073732718%)"/><text x="845" y="543" text-anchor="middle" font-size="13" fill="#2b1620">81</text><rect x="885" y="522" width="76" height="32" rx="4" fill="hsl(122,45%,52.418181818181814%)"/><text x="923" y="543" text-anchor="middle" font-size="13" fill="#2b1620">94</text><rect x="963" y="522" width="76" height="32" rx="4" fill="hsl(93,45%,60.890243902439025%)"/><text x="1001" y="543" text-anchor="middle" font-size="13" fill="#2b1620">71</text><rect x="1041" y="522" width="76" height="32" rx="4" fill="hsl(73,45%,66.625%)"/><text x="1079" y="543" text-anchor="middle" font-size="13" fill="#2b1620">56</text><rect x="1119" y="522" width="76" height="32" rx="4" fill="hsl(96,45%,59.83216783216783%)"/><text x="1157" y="543" text-anchor="middle" font-size="13" fill="#2b1620">74</text><rect x="1197" y="522" width="76" height="32" rx="4" fill="hsl(43,45%,75.33333333333333%)"/><text x="1235" y="543" text-anchor="middle" font-size="13" fill="#2b1620">33</text><text x="248" y="577" text-anchor="end" font-size="15" fill="#2b1620">Qwen3-VL 30B-A3B</text><rect x="261" y="556" width="76" height="32" rx="4" fill="hsl(104,45%,57.53448275862069%)"/><text x="299" y="577" text-anchor="middle" font-size="13" fill="#2b1620">80</text><rect x="339" y="556" width="76" height="32" rx="4" fill="hsl(120,45%,52.93562231759657%)"/><text x="377" y="577" text-anchor="middle" font-size="13" fill="#2b1620">92</text><rect x="417" y="556" width="76" height="32" rx="4" fill="hsl(117,45%,53.88837209302326%)"/><text x="455" y="577" text-anchor="middle" font-size="13" fill="#2b1620">90</text><rect x="495" y="556" width="76" height="32" rx="4" fill="hsl(103,45%,58.02816901408451%)"/><text x="533" y="577" text-anchor="middle" font-size="13" fill="#2b1620">79</text><rect x="573" y="556" width="76" height="32" rx="4" fill="hsl(45,45%,74.80555555555556%)"/><text x="611" y="577" text-anchor="middle" font-size="13" fill="#2b1620">35</text><rect x="651" y="556" width="76" height="32" rx="4" fill="hsl(98,45%,59.22330097087379%)"/><text x="689" y="577" text-anchor="middle" font-size="13" fill="#2b1620">76</text><rect x="729" y="556" width="76" height="32" rx="4" fill="hsl(119,45%,53.07234042553191%)"/><text x="767" y="577" text-anchor="middle" font-size="13" fill="#2b1620">92</text><rect x="807" y="556" width="76" height="32" rx="4" fill="hsl(92,45%,61.112052953961665%)"/><text x="845" y="577" text-anchor="middle" font-size="13" fill="#2b1620">71</text><rect x="885" y="556" width="76" height="32" rx="4" fill="hsl(116,45%,54.11520737327189%)"/><text x="923" y="577" text-anchor="middle" font-size="13" fill="#2b1620">89</text><rect x="963" y="556" width="76" height="32" rx="4" fill="hsl(61,45%,70.15853658536585%)"/><text x="1001" y="577" text-anchor="middle" font-size="13" fill="#2b1620">47</text><rect x="1041" y="556" width="76" height="32" rx="4" fill="hsl(56,45%,71.49180327868852%)"/><text x="1079" y="577" text-anchor="middle" font-size="13" fill="#2b1620">43</text><rect x="1119" y="556" width="76" height="32" rx="4" fill="hsl(74,45%,66.36496350364963%)"/><text x="1157" y="577" text-anchor="middle" font-size="13" fill="#2b1620">57</text><rect x="1197" y="556" width="76" height="32" rx="4" fill="hsl(87,45%,62.66666666666667%)"/><text x="1235" y="577" text-anchor="middle" font-size="13" fill="#2b1620">67</text></svg>