<svg xmlns="http://www.w3.org/2000/svg" width="1300" height="629" viewBox="0 0 1300 629" font-family="Montserrat, 'DejaVu Sans', Arial, sans-serif"><rect width="1300" height="629" fill="#fbf5ec"/><text x="40" y="52" font-size="26" font-weight="700" fill="#2b1620">Score by image type (%)</text><text x="40" y="82" font-size="16" fill="#5c4750">Rows sorted by overall score. Measured on the items each model found; misses show up in recall.</text><text x="299" y="205" text-anchor="start" font-size="14" fill="#5c4750" transform="rotate(-35 299 205)">celebrity</text><text x="389" y="205" text-anchor="start" font-size="14" fill="#5c4750" transform="rotate(-35 389 205)">accessories</text><text x="479" y="205" text-anchor="start" font-size="14" fill="#5c4750" transform="rotate(-35 479 205)">footwear</text><text x="569" y="205" text-anchor="start" font-size="14" fill="#5c4750" transform="rotate(-35 569 205)">mens-casual</text><text x="659" y="205" text-anchor="start" font-size="14" fill="#5c4750" transform="rotate(-35 659 205)">mens-ethnic</text><text x="749" y="205" text-anchor="start" font-size="14" fill="#5c4750" transform="rotate(-35 749 205)">mens-formals</text><text x="839" y="205" text-anchor="start" font-size="14" fill="#5c4750" transform="rotate(-35 839 205)">womens-ethnic</text><text x="929" y="205" text-anchor="start" font-size="14" fill="#5c4750" transform="rotate(-35 929 205)">womens-western</text><text x="1019" y="205" text-anchor="start" font-size="14" fill="#5c4750" transform="rotate(-35 1019 205)">everyday</text><text x="1109" y="205" text-anchor="start" font-size="14" fill="#5c4750" transform="rotate(-35 1109 205)">graphic-tees</text><text x="248" y="237" text-anchor="end" font-size="15" fill="#2b1620">Gemini 3.6 Flash</text><rect x="261" y="216" width="88" height="32" rx="4" fill="hsl(124,45%,51.623842736369916%)"/><text x="305" y="237" text-anchor="middle" font-size="13" fill="#2b1620">96</text><rect x="351" y="216" width="88" height="32" rx="4" fill="hsl(122,45%,52.260255456349206%)"/><text x="395" y="237" text-anchor="middle" font-size="13" fill="#2b1620">94</text><rect x="441" y="216" width="88" height="32" rx="4" fill="hsl(126,45%,51.3008308531746%)"/><text x="485" y="237" text-anchor="middle" font-size="13" fill="#2b1620">97</text><rect x="531" y="216" width="88" height="32" rx="4" fill="hsl(127,45%,50.93210671768708%)"/><text x="575" y="237" text-anchor="middle" font-size="13" fill="#2b1620">98</text><rect x="621" y="216" width="88" height="32" rx="4" fill="hsl(125,45%,51.48230158730159%)"/><text x="665" y="237" text-anchor="middle" font-size="13" fill="#2b1620">96</text><rect x="711" y="216" width="88" height="32" rx="4" fill="hsl(125,45%,51.46437913359789%)"/><text x="755" y="237" text-anchor="middle" font-size="13" fill="#2b1620">96</text><rect x="801" y="216" width="88" height="32" rx="4" fill="hsl(119,45%,53.32740327380952%)"/><text x="845" y="237" text-anchor="middle" font-size="13" fill="#2b1620">91</text><rect x="891" y="216" width="88" height="32" rx="4" fill="hsl(124,45%,51.88193376068376%)"/><text x="935" y="237" text-anchor="middle" font-size="13" fill="#2b1620">95</text><rect x="981" y="216" width="88" height="32" rx="4" fill="hsl(123,45%,52.13666955600983%)"/><text x="1025" y="237" text-anchor="middle" font-size="13" fill="#2b1620">94</text><rect x="1071" y="216" width="88" height="32" rx="4" fill="hsl(123,45%,52.01320185986853%)"/><text x="1115" y="237" text-anchor="middle" font-size="13" fill="#2b1620">95</text><text x="248" y="271" text-anchor="end" font-size="15" fill="#2b1620">Gemini 3 Flash</text><rect x="261" y="250" width="88" height="32" rx="4" fill="hsl(122,45%,52.36577618184954%)"/><text x="305" y="271" text-anchor="middle" font-size="13" fill="#2b1620">94</text><rect x="351" y="250" width="88" height="32" rx="4" fill="hsl(114,45%,54.53839409722222%)"/><text x="395" y="271" text-anchor="middle" font-size="13" fill="#2b1620">88</text><rect x="441" y="250" width="88" height="32" rx="4" fill="hsl(125,45%,51.38437996031746%)"/><text x="485" y="271" text-anchor="middle" font-size="13" fill="#2b1620">96</text><rect x="531" y="250" width="88" height="32" rx="4" fill="hsl(125,45%,51.37273384353742%)"/><text x="575" y="271" text-anchor="middle" font-size="13" fill="#2b1620">96</text><rect x="621" y="250" width="88" height="32" rx="4" fill="hsl(126,45%,51.04754464285714%)"/><text x="665" y="271" text-anchor="middle" font-size="13" fill="#2b1620">97</text><rect x="711" y="250" width="88" height="32" rx="4" fill="hsl(126,45%,51.14991154100528%)"/><text x="755" y="271" text-anchor="middle" font-size="13" fill="#2b1620">97</text><rect x="801" y="250" width="88" height="32" rx="4" fill="hsl(121,45%,52.65547619047619%)"/><text x="845" y="271" text-anchor="middle" font-size="13" fill="#2b1620">93</text><rect x="891" y="250" width="88" height="32" rx="4" fill="hsl(125,45%,51.42563797313798%)"/><text x="935" y="271" text-anchor="middle" font-size="13" fill="#2b1620">96</text><rect x="981" y="250" width="88" height="32" rx="4" fill="hsl(124,45%,51.73112888140666%)"/><text x="1025" y="271" text-anchor="middle" font-size="13" fill="#2b1620">95</text><rect x="1071" y="250" width="88" height="32" rx="4" fill="hsl(126,45%,51.184590748757415%)"/><text x="1115" y="271" text-anchor="middle" font-size="13" fill="#2b1620">97</text><text x="248" y="305" text-anchor="end" font-size="15" fill="#2b1620">Gemini 3.5 Flash</text><rect x="261" y="284" width="88" height="32" rx="4" fill="hsl(122,45%,52.41935300207039%)"/><text x="305" y="305" text-anchor="middle" font-size="13" fill="#2b1620">94</text><rect x="351" y="284" width="88" height="32" rx="4" fill="hsl(118,45%,53.60698412698412%)"/><text x="395" y="305" text-anchor="middle" font-size="13" fill="#2b1620">91</text><rect x="441" y="284" width="88" height="32" rx="4" fill="hsl(124,45%,51.70698412698413%)"/><text x="485" y="305" text-anchor="middle" font-size="13" fill="#2b1620">96</text><rect x="531" y="284" width="88" height="32" rx="4" fill="hsl(127,45%,50.81005810657596%)"/><text x="575" y="305" text-anchor="middle" font-size="13" fill="#2b1620">98</text><rect x="621" y="284" width="88" height="32" rx="4" fill="hsl(124,45%,51.61895833333333%)"/><text x="665" y="305" text-anchor="middle" font-size="13" fill="#2b1620">96</text><rect x="711" y="284" width="88" height="32" rx="4" fill="hsl(115,45%,54.43815558862434%)"/><text x="755" y="305" text-anchor="middle" font-size="13" fill="#2b1620">88</text><rect x="801" y="284" width="88" height="32" rx="4" fill="hsl(100,45%,58.754749503968256%)"/><text x="845" y="305" text-anchor="middle" font-size="13" fill="#2b1620">77</text><rect x="891" y="284" width="88" height="32" rx="4" fill="hsl(124,45%,51.89449023199023%)"/><text x="935" y="305" text-anchor="middle" font-size="13" fill="#2b1620">95</text><rect x="981" y="284" width="88" height="32" rx="4" fill="hsl(115,45%,54.38498892696809%)"/><text x="1025" y="305" text-anchor="middle" font-size="13" fill="#2b1620">88</text><rect x="1071" y="284" width="88" height="32" rx="4" fill="hsl(119,45%,53.069930254930256%)"/><text x="1115" y="305" text-anchor="middle" font-size="13" fill="#2b1620">92</text><text x="248" y="339" text-anchor="end" font-size="15" fill="#2b1620">Gemini 3.1 Flash-Lite</text><rect x="261" y="318" width="88" height="32" rx="4" fill="hsl(117,45%,53.92357293823327%)"/><text x="305" y="339" text-anchor="middle" font-size="13" fill="#2b1620">90</text><rect x="351" y="318" width="88" height="32" rx="4" fill="hsl(111,45%,55.621728670634916%)"/><text x="395" y="339" text-anchor="middle" font-size="13" fill="#2b1620">85</text><rect x="441" y="318" width="88" height="32" rx="4" fill="hsl(124,45%,51.73040426587301%)"/><text x="485" y="339" text-anchor="middle" font-size="13" fill="#2b1620">95</text><rect x="531" y="318" width="88" height="32" rx="4" fill="hsl(124,45%,51.63608418367346%)"/><text x="575" y="339" text-anchor="middle" font-size="13" fill="#2b1620">96</text><rect x="621" y="318" width="88" height="32" rx="4" fill="hsl(109,45%,56.198750000000004%)"/><text x="665" y="339" text-anchor="middle" font-size="13" fill="#2b1620">84</text><rect x="711" y="318" width="88" height="32" rx="4" fill="hsl(112,45%,55.234236111111116%)"/><text x="755" y="339" text-anchor="middle" font-size="13" fill="#2b1620">86</text><rect x="801" y="318" width="88" height="32" rx="4" fill="hsl(114,45%,54.65801587301588%)"/><text x="845" y="339" text-anchor="middle" font-size="13" fill="#2b1620">88</text><rect x="891" y="318" width="88" height="32" rx="4" fill="hsl(123,45%,52.12935134310134%)"/><text x="935" y="339" text-anchor="middle" font-size="13" fill="#2b1620">94</text><rect x="981" y="318" width="88" height="32" rx="4" fill="hsl(116,45%,54.20364909010743%)"/><text x="1025" y="339" text-anchor="middle" font-size="13" fill="#2b1620">89</text><rect x="1071" y="318" width="88" height="32" rx="4" fill="hsl(107,45%,56.58367364117365%)"/><text x="1115" y="339" text-anchor="middle" font-size="13" fill="#2b1620">83</text><text x="248" y="373" text-anchor="end" font-size="15" fill="#2b1620">GPT-5.4 mini</text><rect x="261" y="352" width="88" height="32" rx="4" fill="hsl(116,45%,54.17467714803313%)"/><text x="305" y="373" text-anchor="middle" font-size="13" fill="#2b1620">89</text><rect x="351" y="352" width="88" height="32" rx="4" fill="hsl(109,45%,56.04503472222222%)"/><text x="395" y="373" text-anchor="middle" font-size="13" fill="#2b1620">84</text><rect x="441" y="352" width="88" height="32" rx="4" fill="hsl(117,45%,53.780349702380946%)"/><text x="485" y="373" text-anchor="middle" font-size="13" fill="#2b1620">90</text><rect x="531" y="352" width="88" height="32" rx="4" fill="hsl(119,45%,53.33659226190476%)"/><text x="575" y="373" text-anchor="middle" font-size="13" fill="#2b1620">91</text><rect x="621" y="352" width="88" height="32" rx="4" fill="hsl(115,45%,54.38950892857142%)"/><text x="665" y="373" text-anchor="middle" font-size="13" fill="#2b1620">88</text><rect x="711" y="352" width="88" height="32" rx="4" fill="hsl(118,45%,53.551944444444445%)"/><text x="755" y="373" text-anchor="middle" font-size="13" fill="#2b1620">91</text><rect x="801" y="352" width="88" height="32" rx="4" fill="hsl(109,45%,56.04126488095238%)"/><text x="845" y="373" text-anchor="middle" font-size="13" fill="#2b1620">84</text><rect x="891" y="352" width="88" height="32" rx="4" fill="hsl(115,45%,54.4958836996337%)"/><text x="935" y="373" text-anchor="middle" font-size="13" fill="#2b1620">88</text><rect x="981" y="352" width="88" height="32" rx="4" fill="hsl(113,45%,54.82376735276042%)"/><text x="1025" y="373" text-anchor="middle" font-size="13" fill="#2b1620">87</text><rect x="1071" y="352" width="88" height="32" rx="4" fill="hsl(118,45%,53.43060125060125%)"/><text x="1115" y="373" text-anchor="middle" font-size="13" fill="#2b1620">91</text><text x="248" y="407" text-anchor="end" font-size="15" fill="#2b1620">GPT-5.6 Luna</text><rect x="261" y="386" width="88" height="32" rx="4" fill="hsl(112,45%,55.16853433402347%)"/><text x="305" y="407" text-anchor="middle" font-size="13" fill="#2b1620">86</text><rect x="351" y="386" width="88" height="32" rx="4" fill="hsl(110,45%,55.76792782738095%)"/><text x="395" y="407" text-anchor="middle" font-size="13" fill="#2b1620">85</text><rect x="441" y="386" width="88" height="32" rx="4" fill="hsl(114,45%,54.69934275793651%)"/><text x="485" y="407" text-anchor="middle" font-size="13" fill="#2b1620">88</text><rect x="531" y="386" width="88" height="32" rx="4" fill="hsl(113,45%,55.0324149659864%)"/><text x="575" y="407" text-anchor="middle" font-size="13" fill="#2b1620">87</text><rect x="621" y="386" width="88" height="32" rx="4" fill="hsl(114,45%,54.68911706349206%)"/><text x="665" y="407" text-anchor="middle" font-size="13" fill="#2b1620">88</text><rect x="711" y="386" width="88" height="32" rx="4" fill="hsl(115,45%,54.366151620370374%)"/><text x="755" y="407" text-anchor="middle" font-size="13" fill="#2b1620">89</text><rect x="801" y="386" width="88" height="32" rx="4" fill="hsl(110,45%,55.86356398809524%)"/><text x="845" y="407" text-anchor="middle" font-size="13" fill="#2b1620">85</text><rect x="891" y="386" width="88" height="32" rx="4" fill="hsl(107,45%,56.80836233211234%)"/><text x="935" y="407" text-anchor="middle" font-size="13" fill="#2b1620">82</text><rect x="981" y="386" width="88" height="32" rx="4" fill="hsl(112,45%,55.38346407193629%)"/><text x="1025" y="407" text-anchor="middle" font-size="13" fill="#2b1620">86</text><rect x="1071" y="386" width="88" height="32" rx="4" fill="hsl(116,45%,54.121597923681264%)"/><text x="1115" y="407" text-anchor="middle" font-size="13" fill="#2b1620">89</text><text x="248" y="441" text-anchor="end" font-size="15" fill="#2b1620">Claude Haiku 4.5</text><rect x="261" y="420" width="88" height="32" rx="4" fill="hsl(108,45%,56.52353411835749%)"/><text x="305" y="441" text-anchor="middle" font-size="13" fill="#2b1620">83</text><rect x="351" y="420" width="88" height="32" rx="4" fill="hsl(109,45%,56.133602430555555%)"/><text x="395" y="441" text-anchor="middle" font-size="13" fill="#2b1620">84</text><rect x="441" y="420" width="88" height="32" rx="4" fill="hsl(111,45%,55.447043650793645%)"/><text x="485" y="441" text-anchor="middle" font-size="13" fill="#2b1620">86</text><rect x="531" y="420" width="88" height="32" rx="4" fill="hsl(115,45%,54.43240433673469%)"/><text x="575" y="441" text-anchor="middle" font-size="13" fill="#2b1620">88</text><rect x="621" y="420" width="88" height="32" rx="4" fill="hsl(105,45%,57.35769345238096%)"/><text x="665" y="441" text-anchor="middle" font-size="13" fill="#2b1620">81</text><rect x="711" y="420" width="88" height="32" rx="4" fill="hsl(115,45%,54.32356812169312%)"/><text x="755" y="441" text-anchor="middle" font-size="13" fill="#2b1620">89</text><rect x="801" y="420" width="88" height="32" rx="4" fill="hsl(102,45%,58.08258680555556%)"/><text x="845" y="441" text-anchor="middle" font-size="13" fill="#2b1620">79</text><rect x="891" y="420" width="88" height="32" rx="4" fill="hsl(109,45%,56.07083638583638%)"/><text x="935" y="441" text-anchor="middle" font-size="13" fill="#2b1620">84</text><rect x="981" y="420" width="88" height="32" rx="4" fill="hsl(112,45%,55.22408990700659%)"/><text x="1025" y="441" text-anchor="middle" font-size="13" fill="#2b1620">86</text><rect x="1071" y="420" width="88" height="32" rx="4" fill="hsl(116,45%,54.18233044733045%)"/><text x="1115" y="441" text-anchor="middle" font-size="13" fill="#2b1620">89</text><text x="248" y="475" text-anchor="end" font-size="15" fill="#2b1620">GPT-5.4 nano</text><rect x="261" y="454" width="88" height="32" rx="4" fill="hsl(106,45%,57.04793952726018%)"/><text x="305" y="475" text-anchor="middle" font-size="13" fill="#2b1620">81</text><rect x="351" y="454" width="88" height="32" rx="4" fill="hsl(95,45%,60.31522817460318%)"/><text x="395" y="475" text-anchor="middle" font-size="13" fill="#2b1620">73</text><rect x="441" y="454" width="88" height="32" rx="4" fill="hsl(107,45%,56.58985532407407%)"/><text x="485" y="475" text-anchor="middle" font-size="13" fill="#2b1620">83</text><rect x="531" y="454" width="88" height="32" rx="4" fill="hsl(113,45%,54.96629464285714%)"/><text x="575" y="475" text-anchor="middle" font-size="13" fill="#2b1620">87</text><rect x="621" y="454" width="88" height="32" rx="4" fill="hsl(110,45%,55.84348958333333%)"/><text x="665" y="475" text-anchor="middle" font-size="13" fill="#2b1620">85</text><rect x="711" y="454" width="88" height="32" rx="4" fill="hsl(116,45%,54.09875992063492%)"/><text x="755" y="475" text-anchor="middle" font-size="13" fill="#2b1620">89</text><rect x="801" y="454" width="88" height="32" rx="4" fill="hsl(104,45%,57.58400173611111%)"/><text x="845" y="475" text-anchor="middle" font-size="13" fill="#2b1620">80</text><rect x="891" y="454" width="88" height="32" rx="4" fill="hsl(102,45%,58.30713522588522%)"/><text x="935" y="475" text-anchor="middle" font-size="13" fill="#2b1620">78</text><rect x="981" y="454" width="88" height="32" rx="4" fill="hsl(107,45%,56.64069915424081%)"/><text x="1025" y="475" text-anchor="middle" font-size="13" fill="#2b1620">83</text><rect x="1071" y="454" width="88" height="32" rx="4" fill="hsl(113,45%,54.87590127465128%)"/><text x="1115" y="475" text-anchor="middle" font-size="13" fill="#2b1620">87</text><text x="248" y="509" text-anchor="end" font-size="15" fill="#2b1620">GPT-5 nano</text><rect x="261" y="488" width="88" height="32" rx="4" fill="hsl(101,45%,58.352337387853694%)"/><text x="305" y="509" text-anchor="middle" font-size="13" fill="#2b1620">78</text><rect x="351" y="488" width="88" height="32" rx="4" fill="hsl(96,45%,60.06764384920635%)"/><text x="395" y="509" text-anchor="middle" font-size="13" fill="#2b1620">74</text><rect x="441" y="488" width="88" height="32" rx="4" fill="hsl(110,45%,55.97507275132275%)"/><text x="485" y="509" text-anchor="middle" font-size="13" fill="#2b1620">84</text><rect x="531" y="488" width="88" height="32" rx="4" fill="hsl(111,45%,55.41918721655329%)"/><text x="575" y="509" text-anchor="middle" font-size="13" fill="#2b1620">86</text><rect x="621" y="488" width="88" height="32" rx="4" fill="hsl(105,45%,57.44656746031747%)"/><text x="665" y="509" text-anchor="middle" font-size="13" fill="#2b1620">80</text><rect x="711" y="488" width="88" height="32" rx="4" fill="hsl(109,45%,56.01575562169312%)"/><text x="755" y="509" text-anchor="middle" font-size="13" fill="#2b1620">84</text><rect x="801" y="488" width="88" height="32" rx="4" fill="hsl(83,45%,63.64291418650794%)"/><text x="845" y="509" text-anchor="middle" font-size="13" fill="#2b1620">64</text><rect x="891" y="488" width="88" height="32" rx="4" fill="hsl(106,45%,57.10525183150183%)"/><text x="935" y="509" text-anchor="middle" font-size="13" fill="#2b1620">81</text><rect x="981" y="488" width="88" height="32" rx="4" fill="hsl(104,45%,57.49006755718562%)"/><text x="1025" y="509" text-anchor="middle" font-size="13" fill="#2b1620">80</text><rect x="1071" y="488" width="88" height="32" rx="4" fill="hsl(116,45%,54.17809603976271%)"/><text x="1115" y="509" text-anchor="middle" font-size="13" fill="#2b1620">89</text><text x="248" y="543" text-anchor="end" font-size="15" fill="#2b1620">Qwen3-VL 235B-A22B</text><rect x="261" y="522" width="88" height="32" rx="4" fill="hsl(96,45%,59.93365877329193%)"/><text x="305" y="543" text-anchor="middle" font-size="13" fill="#2b1620">74</text><rect x="351" y="522" width="88" height="32" rx="4" fill="hsl(81,45%,64.23291790674602%)"/><text x="395" y="543" text-anchor="middle" font-size="13" fill="#2b1620">63</text><rect x="441" y="522" width="88" height="32" rx="4" fill="hsl(111,45%,55.53866650132275%)"/><text x="485" y="543" text-anchor="middle" font-size="13" fill="#2b1620">85</text><rect x="531" y="522" width="88" height="32" rx="4" fill="hsl(115,45%,54.298022959183676%)"/><text x="575" y="543" text-anchor="middle" font-size="13" fill="#2b1620">89</text><rect x="621" y="522" width="88" height="32" rx="4" fill="hsl(66,45%,68.8138640873016%)"/><text x="665" y="543" text-anchor="middle" font-size="13" fill="#2b1620">50</text><rect x="711" y="522" width="88" height="32" rx="4" fill="hsl(100,45%,58.820957341269846%)"/><text x="755" y="543" text-anchor="middle" font-size="13" fill="#2b1620">77</text><rect x="801" y="522" width="88" height="32" rx="4" fill="hsl(65,45%,69.13439484126984%)"/><text x="845" y="543" text-anchor="middle" font-size="13" fill="#2b1620">50</text><rect x="891" y="522" width="88" height="32" rx="4" fill="hsl(108,45%,56.3982326007326%)"/><text x="935" y="543" text-anchor="middle" font-size="13" fill="#2b1620">83</text><rect x="981" y="522" width="88" height="32" rx="4" fill="hsl(92,45%,61.08900586553364%)"/><text x="1025" y="543" text-anchor="middle" font-size="13" fill="#2b1620">71</text><rect x="1071" y="522" width="88" height="32" rx="4" fill="hsl(109,45%,56.18909692159692%)"/><text x="1115" y="543" text-anchor="middle" font-size="13" fill="#2b1620">84</text><text x="248" y="577" text-anchor="end" font-size="15" fill="#2b1620">Qwen3-VL 30B-A3B</text><rect x="261" y="556" width="88" height="32" rx="4" fill="hsl(91,45%,61.52314678226363%)"/><text x="305" y="577" text-anchor="middle" font-size="13" fill="#2b1620">70</text><rect x="351" y="556" width="88" height="32" rx="4" fill="hsl(73,45%,66.53765749007937%)"/><text x="395" y="577" text-anchor="middle" font-size="13" fill="#2b1620">56</text><rect x="441" y="556" width="88" height="32" rx="4" fill="hsl(109,45%,56.27717840608466%)"/><text x="485" y="577" text-anchor="middle" font-size="13" fill="#2b1620">83</text><rect x="531" y="556" width="88" height="32" rx="4" fill="hsl(100,45%,58.77174744897958%)"/><text x="575" y="577" text-anchor="middle" font-size="13" fill="#2b1620">77</text><rect x="621" y="556" width="88" height="32" rx="4" fill="hsl(80,45%,64.70558531746032%)"/><text x="665" y="577" text-anchor="middle" font-size="13" fill="#2b1620">61</text><rect x="711" y="556" width="88" height="32" rx="4" fill="hsl(89,45%,61.915965608465605%)"/><text x="755" y="577" text-anchor="middle" font-size="13" fill="#2b1620">69</text><rect x="801" y="556" width="88" height="32" rx="4" fill="hsl(51,45%,72.97360119047619%)"/><text x="845" y="577" text-anchor="middle" font-size="13" fill="#2b1620">40</text><rect x="891" y="556" width="88" height="32" rx="4" fill="hsl(100,45%,58.6735347985348%)"/><text x="935" y="577" text-anchor="middle" font-size="13" fill="#2b1620">77</text><rect x="981" y="556" width="88" height="32" rx="4" fill="hsl(83,45%,63.74543530543531%)"/><text x="1025" y="577" text-anchor="middle" font-size="13" fill="#2b1620">64</text><rect x="1071" y="556" width="88" height="32" rx="4" fill="hsl(104,45%,57.623921356421356%)"/><text x="1115" y="577" text-anchor="middle" font-size="13" fill="#2b1620">80</text></svg>